<svg width="262" height="161" viewBox="0 0 262 161" fill="none" xmlns="http://www.w3.org/2000/svg">
<g filter="url(#filter0_d_73_248)">
<path d="M43.2282 15.478C42.8442 15.754 42.3522 15.952 41.7522 16.072C41.1642 16.192 40.5582 16.252 39.9342 16.252C39.1782 16.252 38.4582 16.138 37.7742 15.91C37.1022 15.67 36.5082 15.292 35.9922 14.776C35.4762 14.248 35.0622 13.57 34.7502 12.742C34.4502 11.902 34.3002 10.888 34.3002 9.7C34.3002 8.464 34.4682 7.432 34.8042 6.604C35.1522 5.764 35.5962 5.092 36.1362 4.588C36.6882 4.072 37.3002 3.706 37.9722 3.49C38.6442 3.262 39.3162 3.148 39.9882 3.148C40.7082 3.148 41.3142 3.196 41.8062 3.292C42.3102 3.388 42.7242 3.502 43.0482 3.634L42.5622 5.722C42.2862 5.59 41.9562 5.494 41.5722 5.434C41.2002 5.374 40.7442 5.344 40.2042 5.344C39.2082 5.344 38.4042 5.698 37.7922 6.406C37.1922 7.114 36.8922 8.212 36.8922 9.7C36.8922 10.348 36.9642 10.942 37.1082 11.482C37.2522 12.01 37.4682 12.466 37.7562 12.85C38.0562 13.222 38.4222 13.516 38.8542 13.732C39.2982 13.936 39.8082 14.038 40.3842 14.038C40.9242 14.038 41.3802 13.984 41.7522 13.876C42.1242 13.768 42.4482 13.63 42.7242 13.462L43.2282 15.478ZM44.7509 3.4H52.2209V5.596H47.2169V8.53H51.7709V10.726H47.2169V13.804H52.3109V16H44.7509V3.4ZM65.2072 18.25H63.4612L63.1912 16H55.0912L54.8212 18.25H53.0752V13.804H54.4072C54.4912 13.672 54.6292 13.378 54.8212 12.922C55.0132 12.466 55.2052 11.824 55.3972 10.996C55.5892 10.156 55.7512 9.112 55.8832 7.864C56.0152 6.604 56.0752 5.116 56.0632 3.4H63.6052V13.804H65.2072V18.25ZM61.1392 13.804V5.596H58.3492C58.2772 7.732 58.1032 9.484 57.8272 10.852C57.5632 12.208 57.2932 13.192 57.0172 13.804H61.1392ZM65.8178 9.7C65.8178 7.6 66.2798 5.986 67.2038 4.858C68.1278 3.718 69.4478 3.148 71.1638 3.148C72.0638 3.148 72.8498 3.304 73.5218 3.616C74.1938 3.928 74.7518 4.372 75.1958 4.948C75.6398 5.524 75.9698 6.214 76.1858 7.018C76.4018 7.822 76.5098 8.716 76.5098 9.7C76.5098 11.8 76.0418 13.42 75.1058 14.56C74.1818 15.688 72.8678 16.252 71.1638 16.252C70.2518 16.252 69.4598 16.096 68.7878 15.784C68.1158 15.472 67.5578 15.028 67.1138 14.452C66.6818 13.876 66.3578 13.186 66.1418 12.382C65.9258 11.578 65.8178 10.684 65.8178 9.7ZM68.4098 9.7C68.4098 10.336 68.4638 10.924 68.5718 11.464C68.6798 11.992 68.8418 12.448 69.0578 12.832C69.2858 13.216 69.5738 13.516 69.9218 13.732C70.2698 13.948 70.6838 14.056 71.1638 14.056C72.0398 14.056 72.7178 13.714 73.1978 13.03C73.6778 12.346 73.9178 11.236 73.9178 9.7C73.9178 9.088 73.8638 8.518 73.7558 7.99C73.6598 7.462 73.5038 7 73.2878 6.604C73.0718 6.208 72.7898 5.902 72.4418 5.686C72.0938 5.458 71.6678 5.344 71.1638 5.344C70.2878 5.344 69.6098 5.698 69.1298 6.406C68.6498 7.102 68.4098 8.2 68.4098 9.7ZM85.3464 10.726H80.7384V16H78.2724V3.4H80.7384V8.53H85.3464V3.4H87.8124V16H85.3464V10.726ZM96.207 13.21H92.337L91.383 16H88.917L93.453 3.31H95.271L99.807 16H97.215L96.207 13.21ZM92.967 11.23H95.667L94.731 8.422L94.353 6.442H94.263L93.885 8.44L92.967 11.23ZM104.748 9.772H115.584V11.86H104.748V9.772ZM128.817 10.726H124.209V16H121.743V3.4H124.209V8.53H128.817V3.4H131.283V16H128.817V10.726ZM133.468 3.4H140.938V5.596H135.934V8.53H140.488V10.726H135.934V13.804H141.028V16H133.468V3.4ZM142.872 3.4H150.63V5.596H145.338V8.224C145.542 8.188 145.788 8.152 146.076 8.116C146.376 8.08 146.67 8.062 146.958 8.062C147.63 8.062 148.248 8.128 148.812 8.26C149.376 8.392 149.856 8.614 150.252 8.926C150.66 9.226 150.978 9.628 151.206 10.132C151.434 10.624 151.548 11.23 151.548 11.95C151.548 12.658 151.428 13.276 151.188 13.804C150.96 14.332 150.624 14.77 150.18 15.118C149.748 15.466 149.22 15.73 148.596 15.91C147.984 16.09 147.294 16.18 146.526 16.18C146.322 16.18 146.064 16.174 145.752 16.162C145.452 16.15 145.128 16.132 144.78 16.108C144.444 16.084 144.108 16.054 143.772 16.018C143.436 15.982 143.136 15.934 142.872 15.874V3.4ZM146.706 14.146C147.018 14.146 147.306 14.11 147.57 14.038C147.846 13.954 148.086 13.834 148.29 13.678C148.494 13.51 148.656 13.3 148.776 13.048C148.896 12.796 148.956 12.49 148.956 12.13C148.956 11.698 148.89 11.35 148.758 11.086C148.626 10.822 148.446 10.618 148.218 10.474C147.99 10.318 147.726 10.216 147.426 10.168C147.138 10.12 146.826 10.096 146.49 10.096C146.322 10.096 146.112 10.114 145.86 10.15C145.608 10.174 145.434 10.198 145.338 10.222V14.056C145.47 14.092 145.668 14.116 145.932 14.128C146.208 14.14 146.466 14.146 146.706 14.146ZM152.742 9.7C152.742 7.6 153.204 5.986 154.128 4.858C155.052 3.718 156.372 3.148 158.088 3.148C158.988 3.148 159.774 3.304 160.446 3.616C161.118 3.928 161.676 4.372 162.12 4.948C162.564 5.524 162.894 6.214 163.11 7.018C163.326 7.822 163.434 8.716 163.434 9.7C163.434 11.8 162.966 13.42 162.03 14.56C161.106 15.688 159.792 16.252 158.088 16.252C157.176 16.252 156.384 16.096 155.712 15.784C155.04 15.472 154.482 15.028 154.038 14.452C153.606 13.876 153.282 13.186 153.066 12.382C152.85 11.578 152.742 10.684 152.742 9.7ZM155.334 9.7C155.334 10.336 155.388 10.924 155.496 11.464C155.604 11.992 155.766 12.448 155.982 12.832C156.21 13.216 156.498 13.516 156.846 13.732C157.194 13.948 157.608 14.056 158.088 14.056C158.964 14.056 159.642 13.714 160.122 13.03C160.602 12.346 160.842 11.236 160.842 9.7C160.842 9.088 160.788 8.518 160.68 7.99C160.584 7.462 160.428 7 160.212 6.604C159.996 6.208 159.714 5.902 159.366 5.686C159.018 5.458 158.592 5.344 158.088 5.344C157.212 5.344 156.534 5.698 156.054 6.406C155.574 7.102 155.334 8.2 155.334 9.7ZM171.485 5.596H168.803C168.755 6.736 168.701 7.774 168.641 8.71C168.581 9.646 168.497 10.492 168.389 11.248C168.293 11.992 168.161 12.652 167.993 13.228C167.825 13.804 167.609 14.302 167.345 14.722C167.177 14.998 166.985 15.226 166.769 15.406C166.565 15.586 166.349 15.73 166.121 15.838C165.893 15.946 165.665 16.018 165.437 16.054C165.221 16.102 165.017 16.126 164.825 16.126C164.549 16.126 164.315 16.102 164.123 16.054C163.943 16.018 163.763 15.958 163.583 15.874L163.853 13.75C163.925 13.774 163.997 13.792 164.069 13.804C164.141 13.816 164.213 13.822 164.285 13.822C164.477 13.822 164.663 13.774 164.843 13.678C165.035 13.582 165.197 13.42 165.329 13.192C165.509 12.928 165.665 12.544 165.797 12.04C165.929 11.524 166.043 10.87 166.139 10.078C166.247 9.286 166.331 8.344 166.391 7.252C166.451 6.148 166.493 4.864 166.517 3.4H173.951V16H171.485V5.596ZM176.112 3.4H178.578V7.918C178.638 7.906 178.734 7.894 178.866 7.882C179.01 7.858 179.16 7.84 179.316 7.828C179.484 7.816 179.652 7.804 179.82 7.792C179.988 7.78 180.144 7.774 180.288 7.774C180.876 7.774 181.446 7.834 181.998 7.954C182.55 8.074 183.036 8.29 183.456 8.602C183.888 8.902 184.23 9.316 184.482 9.844C184.734 10.36 184.86 11.02 184.86 11.824C184.86 13.264 184.41 14.35 183.51 15.082C182.622 15.814 181.344 16.18 179.676 16.18C179.508 16.18 179.28 16.174 178.992 16.162C178.716 16.162 178.41 16.15 178.074 16.126C177.738 16.102 177.396 16.072 177.048 16.036C176.712 16 176.4 15.946 176.112 15.874V3.4ZM179.802 13.984C180.138 13.984 180.456 13.954 180.756 13.894C181.056 13.822 181.32 13.708 181.548 13.552C181.776 13.384 181.95 13.168 182.07 12.904C182.202 12.64 182.268 12.316 182.268 11.932C182.268 11.524 182.196 11.194 182.052 10.942C181.92 10.678 181.74 10.474 181.512 10.33C181.296 10.186 181.038 10.09 180.738 10.042C180.438 9.994 180.126 9.97 179.802 9.97C179.718 9.97 179.616 9.976 179.496 9.988C179.376 10 179.256 10.012 179.136 10.024C179.016 10.036 178.902 10.054 178.794 10.078C178.698 10.09 178.626 10.102 178.578 10.114V13.876C178.71 13.912 178.884 13.942 179.1 13.966C179.328 13.978 179.562 13.984 179.802 13.984ZM186.36 16V3.4H188.826V13.804H191.796V3.4H194.262V13.804H197.232V3.4H199.698V16H186.36ZM201.468 9.7C201.468 7.6 201.93 5.986 202.854 4.858C203.778 3.718 205.098 3.148 206.814 3.148C207.714 3.148 208.5 3.304 209.172 3.616C209.844 3.928 210.402 4.372 210.846 4.948C211.29 5.524 211.62 6.214 211.836 7.018C212.052 7.822 212.16 8.716 212.16 9.7C212.16 11.8 211.692 13.42 210.756 14.56C209.832 15.688 208.518 16.252 206.814 16.252C205.902 16.252 205.11 16.096 204.438 15.784C203.766 15.472 203.208 15.028 202.764 14.452C202.332 13.876 202.008 13.186 201.792 12.382C201.576 11.578 201.468 10.684 201.468 9.7ZM204.06 9.7C204.06 10.336 204.114 10.924 204.222 11.464C204.33 11.992 204.492 12.448 204.708 12.832C204.936 13.216 205.224 13.516 205.572 13.732C205.92 13.948 206.334 14.056 206.814 14.056C207.69 14.056 208.368 13.714 208.848 13.03C209.328 12.346 209.568 11.236 209.568 9.7C209.568 9.088 209.514 8.518 209.406 7.99C209.31 7.462 209.154 7 208.938 6.604C208.722 6.208 208.44 5.902 208.092 5.686C207.744 5.458 207.318 5.344 206.814 5.344C205.938 5.344 205.26 5.698 204.78 6.406C204.3 7.102 204.06 8.2 204.06 9.7ZM221.267 9.016L221.411 7.378H221.321L220.475 9.07L215.777 16H213.923V3.4H216.389V10.258L216.209 11.95H216.317L217.199 10.204L221.897 3.4H223.733V16H221.267V9.016ZM217.757 0.268C217.805 0.651999 217.943 0.927999 218.171 1.096C218.411 1.264 218.717 1.348 219.089 1.348C219.893 1.348 220.337 0.994 220.421 0.286L222.419 0.591999C222.287 1.348 221.939 1.9 221.375 2.248C220.823 2.596 220.055 2.77 219.071 2.77C218.579 2.77 218.129 2.734 217.721 2.662C217.313 2.59 216.953 2.476 216.641 2.32C216.341 2.152 216.089 1.93 215.885 1.654C215.693 1.378 215.573 1.036 215.525 0.627999L217.757 0.268ZM50.407 32.596H45.547V43H43.081V30.4H50.407V32.596ZM50.5424 36.7C50.5424 34.6 51.0044 32.986 51.9284 31.858C52.8524 30.718 54.1724 30.148 55.8884 30.148C56.7884 30.148 57.5744 30.304 58.2464 30.616C58.9184 30.928 59.4764 31.372 59.9204 31.948C60.3644 32.524 60.6944 33.214 60.9104 34.018C61.1264 34.822 61.2344 35.716 61.2344 36.7C61.2344 38.8 60.7664 40.42 59.8304 41.56C58.9064 42.688 57.5924 43.252 55.8884 43.252C54.9764 43.252 54.1844 43.096 53.5124 42.784C52.8404 42.472 52.2824 42.028 51.8384 41.452C51.4064 40.876 51.0824 40.186 50.8664 39.382C50.6504 38.578 50.5424 37.684 50.5424 36.7ZM53.1344 36.7C53.1344 37.336 53.1884 37.924 53.2964 38.464C53.4044 38.992 53.5664 39.448 53.7824 39.832C54.0104 40.216 54.2984 40.516 54.6464 40.732C54.9944 40.948 55.4084 41.056 55.8884 41.056C56.7644 41.056 57.4424 40.714 57.9224 40.03C58.4024 39.346 58.6424 38.236 58.6424 36.7C58.6424 36.088 58.5884 35.518 58.4804 34.99C58.3844 34.462 58.2284 34 58.0124 33.604C57.7964 33.208 57.5144 32.902 57.1664 32.686C56.8184 32.458 56.3924 32.344 55.8884 32.344C55.0124 32.344 54.3344 32.698 53.8544 33.406C53.3744 34.102 53.1344 35.2 53.1344 36.7ZM62.997 30.526C63.501 30.43 64.053 30.358 64.653 30.31C65.265 30.25 65.871 30.22 66.471 30.22C67.095 30.22 67.719 30.274 68.343 30.382C68.979 30.478 69.549 30.682 70.053 30.994C70.557 31.294 70.965 31.72 71.277 32.272C71.601 32.812 71.763 33.52 71.763 34.396C71.763 35.188 71.625 35.86 71.349 36.412C71.073 36.952 70.707 37.396 70.251 37.744C69.795 38.092 69.273 38.344 68.685 38.5C68.109 38.656 67.509 38.734 66.885 38.734C66.825 38.734 66.729 38.734 66.597 38.734C66.465 38.734 66.327 38.734 66.183 38.734C66.039 38.722 65.895 38.71 65.751 38.698C65.619 38.686 65.523 38.674 65.463 38.662V43H62.997V30.526ZM66.669 32.344C66.429 32.344 66.201 32.356 65.985 32.38C65.769 32.392 65.595 32.41 65.463 32.434V36.52C65.511 36.532 65.583 36.544 65.679 36.556C65.775 36.568 65.877 36.58 65.985 36.592C66.093 36.592 66.195 36.592 66.291 36.592C66.399 36.592 66.477 36.592 66.525 36.592C66.849 36.592 67.167 36.562 67.479 36.502C67.803 36.442 68.091 36.334 68.343 36.178C68.595 36.01 68.793 35.782 68.937 35.494C69.093 35.206 69.171 34.828 69.171 34.36C69.171 33.964 69.099 33.64 68.955 33.388C68.811 33.124 68.619 32.914 68.379 32.758C68.151 32.602 67.887 32.494 67.587 32.434C67.287 32.374 66.981 32.344 66.669 32.344ZM72.7084 36.7C72.7084 34.6 73.1704 32.986 74.0944 31.858C75.0184 30.718 76.3384 30.148 78.0544 30.148C78.9544 30.148 79.7404 30.304 80.4124 30.616C81.0844 30.928 81.6424 31.372 82.0864 31.948C82.5304 32.524 82.8604 33.214 83.0764 34.018C83.2924 34.822 83.4004 35.716 83.4004 36.7C83.4004 38.8 82.9324 40.42 81.9964 41.56C81.0724 42.688 79.7584 43.252 78.0544 43.252C77.1424 43.252 76.3504 43.096 75.6784 42.784C75.0064 42.472 74.4484 42.028 74.0044 41.452C73.5724 40.876 73.2484 40.186 73.0324 39.382C72.8164 38.578 72.7084 37.684 72.7084 36.7ZM75.3004 36.7C75.3004 37.336 75.3544 37.924 75.4624 38.464C75.5704 38.992 75.7324 39.448 75.9484 39.832C76.1764 40.216 76.4644 40.516 76.8124 40.732C77.1604 40.948 77.5744 41.056 78.0544 41.056C78.9304 41.056 79.6084 40.714 80.0884 40.03C80.5684 39.346 80.8084 38.236 80.8084 36.7C80.8084 36.088 80.7544 35.518 80.6464 34.99C80.5504 34.462 80.3944 34 80.1784 33.604C79.9624 33.208 79.6804 32.902 79.3324 32.686C78.9844 32.458 78.5584 32.344 78.0544 32.344C77.1784 32.344 76.5004 32.698 76.0204 33.406C75.5404 34.102 75.3004 35.2 75.3004 36.7ZM95.881 45.25H94.135L93.865 43H85.765L85.495 45.25H83.749V40.804H85.081C85.165 40.672 85.303 40.378 85.495 39.922C85.687 39.466 85.879 38.824 86.071 37.996C86.263 37.156 86.425 36.112 86.557 34.864C86.689 33.604 86.749 32.116 86.737 30.4H94.279V40.804H95.881V45.25ZM91.813 40.804V32.596H89.023C88.951 34.732 88.777 36.484 88.501 37.852C88.237 39.208 87.967 40.192 87.691 40.804H91.813ZM96.4916 36.7C96.4916 34.6 96.9536 32.986 97.8776 31.858C98.8016 30.718 100.122 30.148 101.838 30.148C102.738 30.148 103.524 30.304 104.196 30.616C104.868 30.928 105.426 31.372 105.87 31.948C106.314 32.524 106.644 33.214 106.86 34.018C107.076 34.822 107.184 35.716 107.184 36.7C107.184 38.8 106.716 40.42 105.78 41.56C104.856 42.688 103.542 43.252 101.838 43.252C100.926 43.252 100.134 43.096 99.4616 42.784C98.7896 42.472 98.2316 42.028 97.7876 41.452C97.3556 40.876 97.0316 40.186 96.8156 39.382C96.5996 38.578 96.4916 37.684 96.4916 36.7ZM99.0836 36.7C99.0836 37.336 99.1376 37.924 99.2456 38.464C99.3536 38.992 99.5156 39.448 99.7316 39.832C99.9596 40.216 100.248 40.516 100.596 40.732C100.944 40.948 101.358 41.056 101.838 41.056C102.714 41.056 103.392 40.714 103.872 40.03C104.352 39.346 104.592 38.236 104.592 36.7C104.592 36.088 104.538 35.518 104.43 34.99C104.334 34.462 104.178 34 103.962 33.604C103.746 33.208 103.464 32.902 103.116 32.686C102.768 32.458 102.342 32.344 101.838 32.344C100.962 32.344 100.284 32.698 99.8036 33.406C99.3236 34.102 99.0836 35.2 99.0836 36.7ZM112.06 37.618H111.412V43H108.946V30.4H111.412V35.98L111.988 35.728L115.462 30.4H118.27L114.598 35.692L113.626 36.376L114.634 37.078L118.828 43H115.786L112.06 37.618ZM132.84 33.334C132.84 33.646 132.798 33.958 132.714 34.27C132.642 34.582 132.516 34.87 132.336 35.134C132.156 35.386 131.922 35.614 131.634 35.818C131.346 36.01 130.998 36.154 130.59 36.25V36.358C130.95 36.418 131.292 36.52 131.616 36.664C131.94 36.808 132.222 37.006 132.462 37.258C132.702 37.51 132.888 37.816 133.02 38.176C133.164 38.536 133.236 38.962 133.236 39.454C133.236 40.102 133.098 40.666 132.822 41.146C132.546 41.614 132.174 41.998 131.706 42.298C131.25 42.598 130.728 42.82 130.14 42.964C129.552 43.108 128.946 43.18 128.322 43.18C128.118 43.18 127.854 43.18 127.53 43.18C127.218 43.18 126.876 43.168 126.504 43.144C126.144 43.132 125.772 43.108 125.388 43.072C125.016 43.036 124.674 42.982 124.362 42.91V30.49C124.59 30.454 124.848 30.418 125.136 30.382C125.436 30.346 125.754 30.316 126.09 30.292C126.426 30.268 126.768 30.25 127.116 30.238C127.476 30.226 127.83 30.22 128.178 30.22C128.766 30.22 129.336 30.268 129.888 30.364C130.452 30.448 130.95 30.604 131.382 30.832C131.826 31.06 132.18 31.378 132.444 31.786C132.708 32.194 132.84 32.71 132.84 33.334ZM128.34 41.146C128.64 41.146 128.928 41.11 129.204 41.038C129.492 40.966 129.744 40.858 129.96 40.714C130.176 40.558 130.35 40.366 130.482 40.138C130.614 39.91 130.68 39.64 130.68 39.328C130.68 38.932 130.602 38.62 130.446 38.392C130.29 38.164 130.086 37.99 129.834 37.87C129.582 37.738 129.3 37.654 128.988 37.618C128.676 37.582 128.364 37.564 128.052 37.564H126.738V41.038C126.798 41.062 126.894 41.08 127.026 41.092C127.158 41.104 127.296 41.116 127.44 41.128C127.596 41.128 127.752 41.134 127.908 41.146C128.076 41.146 128.22 41.146 128.34 41.146ZM127.53 35.692C127.698 35.692 127.89 35.686 128.106 35.674C128.334 35.662 128.52 35.644 128.664 35.62C129.12 35.476 129.51 35.26 129.834 34.972C130.17 34.684 130.338 34.306 130.338 33.838C130.338 33.526 130.278 33.268 130.158 33.064C130.038 32.86 129.876 32.698 129.672 32.578C129.48 32.458 129.258 32.374 129.006 32.326C128.754 32.278 128.49 32.254 128.214 32.254C127.902 32.254 127.614 32.26 127.35 32.272C127.086 32.284 126.882 32.302 126.738 32.326V35.692H127.53ZM145.039 40.21H141.169L140.215 43H137.749L142.285 30.31H144.103L148.639 43H146.047L145.039 40.21ZM141.799 38.23H144.499L143.563 35.422L143.185 33.442H143.095L142.717 35.44L141.799 38.23ZM149.727 30.526C150.231 30.43 150.783 30.358 151.383 30.31C151.995 30.25 152.601 30.22 153.201 30.22C153.825 30.22 154.449 30.274 155.073 30.382C155.709 30.478 156.279 30.682 156.783 30.994C157.287 31.294 157.695 31.72 158.007 32.272C158.331 32.812 158.493 33.52 158.493 34.396C158.493 35.188 158.355 35.86 158.079 36.412C157.803 36.952 157.437 37.396 156.981 37.744C156.525 38.092 156.003 38.344 155.415 38.5C154.839 38.656 154.239 38.734 153.615 38.734C153.555 38.734 153.459 38.734 153.327 38.734C153.195 38.734 153.057 38.734 152.913 38.734C152.769 38.722 152.625 38.71 152.481 38.698C152.349 38.686 152.253 38.674 152.193 38.662V43H149.727V30.526ZM153.399 32.344C153.159 32.344 152.931 32.356 152.715 32.38C152.499 32.392 152.325 32.41 152.193 32.434V36.52C152.241 36.532 152.313 36.544 152.409 36.556C152.505 36.568 152.607 36.58 152.715 36.592C152.823 36.592 152.925 36.592 153.021 36.592C153.129 36.592 153.207 36.592 153.255 36.592C153.579 36.592 153.897 36.562 154.209 36.502C154.533 36.442 154.821 36.334 155.073 36.178C155.325 36.01 155.523 35.782 155.667 35.494C155.823 35.206 155.901 34.828 155.901 34.36C155.901 33.964 155.829 33.64 155.685 33.388C155.541 33.124 155.349 32.914 155.109 32.758C154.881 32.602 154.617 32.494 154.317 32.434C154.017 32.374 153.711 32.344 153.399 32.344ZM167.372 36.016L167.516 34.378H167.426L166.58 36.07L161.882 43H160.028V30.4H162.494V37.258L162.314 38.95H162.422L163.304 37.204L168.002 30.4H169.838V43H167.372V36.016ZM173.097 37.42V35.494H173.529C173.637 35.494 173.769 35.494 173.925 35.494C174.081 35.494 174.237 35.494 174.393 35.494C174.561 35.482 174.723 35.47 174.879 35.458C175.035 35.434 175.161 35.41 175.257 35.386C175.677 35.29 176.037 35.122 176.337 34.882C176.637 34.63 176.787 34.294 176.787 33.874C176.787 33.298 176.601 32.908 176.229 32.704C175.869 32.488 175.389 32.38 174.789 32.38C174.249 32.38 173.745 32.452 173.277 32.596C172.809 32.74 172.455 32.878 172.215 33.01L171.585 30.922C171.717 30.85 171.903 30.772 172.143 30.688C172.395 30.604 172.677 30.526 172.989 30.454C173.313 30.37 173.661 30.304 174.033 30.256C174.405 30.208 174.783 30.184 175.167 30.184C175.695 30.184 176.211 30.232 176.715 30.328C177.219 30.424 177.669 30.592 178.065 30.832C178.461 31.072 178.779 31.396 179.019 31.804C179.259 32.2 179.379 32.71 179.379 33.334C179.379 33.958 179.211 34.534 178.875 35.062C178.551 35.59 178.023 35.974 177.291 36.214V36.304C178.071 36.46 178.677 36.796 179.109 37.312C179.553 37.828 179.775 38.518 179.775 39.382C179.775 40.066 179.637 40.654 179.361 41.146C179.085 41.626 178.719 42.022 178.263 42.334C177.819 42.646 177.303 42.874 176.715 43.018C176.127 43.174 175.527 43.252 174.915 43.252C174.123 43.252 173.403 43.186 172.755 43.054C172.107 42.922 171.609 42.766 171.261 42.586L171.891 40.444C172.167 40.576 172.563 40.714 173.079 40.858C173.595 40.99 174.207 41.056 174.915 41.056C175.179 41.056 175.443 41.026 175.707 40.966C175.983 40.894 176.229 40.786 176.445 40.642C176.661 40.486 176.835 40.288 176.967 40.048C177.099 39.808 177.165 39.52 177.165 39.184C177.165 38.62 176.955 38.194 176.535 37.906C176.115 37.618 175.365 37.462 174.285 37.438C174.141 37.426 174.033 37.42 173.961 37.42C173.889 37.42 173.763 37.42 173.583 37.42H173.097ZM181.095 36.7C181.095 34.6 181.557 32.986 182.481 31.858C183.405 30.718 184.725 30.148 186.441 30.148C187.341 30.148 188.127 30.304 188.799 30.616C189.471 30.928 190.029 31.372 190.473 31.948C190.917 32.524 191.247 33.214 191.463 34.018C191.679 34.822 191.787 35.716 191.787 36.7C191.787 38.8 191.319 40.42 190.383 41.56C189.459 42.688 188.145 43.252 186.441 43.252C185.529 43.252 184.737 43.096 184.065 42.784C183.393 42.472 182.835 42.028 182.391 41.452C181.959 40.876 181.635 40.186 181.419 39.382C181.203 38.578 181.095 37.684 181.095 36.7ZM183.687 36.7C183.687 37.336 183.741 37.924 183.849 38.464C183.957 38.992 184.119 39.448 184.335 39.832C184.563 40.216 184.851 40.516 185.199 40.732C185.547 40.948 185.961 41.056 186.441 41.056C187.317 41.056 187.995 40.714 188.475 40.03C188.955 39.346 189.195 38.236 189.195 36.7C189.195 36.088 189.141 35.518 189.033 34.99C188.937 34.462 188.781 34 188.565 33.604C188.349 33.208 188.067 32.902 187.719 32.686C187.371 32.458 186.945 32.344 186.441 32.344C185.565 32.344 184.887 32.698 184.407 33.406C183.927 34.102 183.687 35.2 183.687 36.7ZM200.624 37.726H196.016V43H193.55V30.4H196.016V35.53H200.624V30.4H203.09V43H200.624V37.726ZM205.274 30.4H212.744V32.596H207.74V35.53H212.294V37.726H207.74V40.804H212.834V43H205.274V30.4ZM214.355 41.848C214.355 41.44 214.487 41.116 214.751 40.876C215.027 40.636 215.363 40.516 215.759 40.516C216.263 40.516 216.659 40.684 216.947 41.02C217.235 41.356 217.379 41.8 217.379 42.352C217.379 42.892 217.295 43.354 217.127 43.738C216.959 44.134 216.749 44.458 216.497 44.71C216.257 44.974 215.993 45.178 215.705 45.322C215.429 45.478 215.177 45.592 214.949 45.664L214.265 44.692C214.589 44.56 214.871 44.344 215.111 44.044C215.351 43.744 215.483 43.426 215.507 43.09C215.231 43.126 214.967 43.042 214.715 42.838C214.475 42.634 214.355 42.304 214.355 41.848ZM6.535 64.42V62.494H6.967C7.075 62.494 7.207 62.494 7.363 62.494C7.519 62.494 7.675 62.494 7.831 62.494C7.999 62.482 8.161 62.47 8.317 62.458C8.473 62.434 8.599 62.41 8.695 62.386C9.115 62.29 9.475 62.122 9.775 61.882C10.075 61.63 10.225 61.294 10.225 60.874C10.225 60.298 10.039 59.908 9.667 59.704C9.307 59.488 8.827 59.38 8.227 59.38C7.687 59.38 7.183 59.452 6.715 59.596C6.247 59.74 5.893 59.878 5.653 60.01L5.023 57.922C5.155 57.85 5.341 57.772 5.581 57.688C5.833 57.604 6.115 57.526 6.427 57.454C6.751 57.37 7.099 57.304 7.471 57.256C7.843 57.208 8.221 57.184 8.605 57.184C9.133 57.184 9.649 57.232 10.153 57.328C10.657 57.424 11.107 57.592 11.503 57.832C11.899 58.072 12.217 58.396 12.457 58.804C12.697 59.2 12.817 59.71 12.817 60.334C12.817 60.958 12.649 61.534 12.313 62.062C11.989 62.59 11.461 62.974 10.729 63.214V63.304C11.509 63.46 12.115 63.796 12.547 64.312C12.991 64.828 13.213 65.518 13.213 66.382C13.213 67.066 13.075 67.654 12.799 68.146C12.523 68.626 12.157 69.022 11.701 69.334C11.257 69.646 10.741 69.874 10.153 70.018C9.565 70.174 8.965 70.252 8.353 70.252C7.561 70.252 6.841 70.186 6.193 70.054C5.545 69.922 5.047 69.766 4.699 69.586L5.329 67.444C5.605 67.576 6.001 67.714 6.517 67.858C7.033 67.99 7.645 68.056 8.353 68.056C8.617 68.056 8.881 68.026 9.145 67.966C9.421 67.894 9.667 67.786 9.883 67.642C10.099 67.486 10.273 67.288 10.405 67.048C10.537 66.808 10.603 66.52 10.603 66.184C10.603 65.62 10.393 65.194 9.973 64.906C9.553 64.618 8.803 64.462 7.723 64.438C7.579 64.426 7.471 64.42 7.399 64.42C7.327 64.42 7.201 64.42 7.021 64.42H6.535ZM21.1396 67.21H17.2696L16.3156 70H13.8496L18.3856 57.31H20.2036L24.7396 70H22.1476L21.1396 67.21ZM17.8996 65.23H20.5996L19.6636 62.422L19.2856 60.442H19.1956L18.8176 62.44L17.8996 65.23ZM33.7975 69.478C33.4135 69.754 32.9215 69.952 32.3215 70.072C31.7335 70.192 31.1275 70.252 30.5035 70.252C29.7475 70.252 29.0275 70.138 28.3435 69.91C27.6715 69.67 27.0775 69.292 26.5615 68.776C26.0455 68.248 25.6315 67.57 25.3195 66.742C25.0195 65.902 24.8695 64.888 24.8695 63.7C24.8695 62.464 25.0375 61.432 25.3735 60.604C25.7215 59.764 26.1655 59.092 26.7055 58.588C27.2575 58.072 27.8695 57.706 28.5415 57.49C29.2135 57.262 29.8855 57.148 30.5575 57.148C31.2775 57.148 31.8835 57.196 32.3755 57.292C32.8795 57.388 33.2935 57.502 33.6175 57.634L33.1315 59.722C32.8555 59.59 32.5255 59.494 32.1415 59.434C31.7695 59.374 31.3135 59.344 30.7735 59.344C29.7775 59.344 28.9735 59.698 28.3615 60.406C27.7615 61.114 27.4615 62.212 27.4615 63.7C27.4615 64.348 27.5335 64.942 27.6775 65.482C27.8215 66.01 28.0375 66.466 28.3255 66.85C28.6255 67.222 28.9915 67.516 29.4235 67.732C29.8675 67.936 30.3775 68.038 30.9535 68.038C31.4935 68.038 31.9495 67.984 32.3215 67.876C32.6935 67.768 33.0175 67.63 33.2935 67.462L33.7975 69.478ZM42.084 59.596H39.402C39.354 60.736 39.3 61.774 39.24 62.71C39.18 63.646 39.096 64.492 38.988 65.248C38.892 65.992 38.76 66.652 38.592 67.228C38.424 67.804 38.208 68.302 37.944 68.722C37.776 68.998 37.584 69.226 37.368 69.406C37.164 69.586 36.948 69.73 36.72 69.838C36.492 69.946 36.264 70.018 36.036 70.054C35.82 70.102 35.616 70.126 35.424 70.126C35.148 70.126 34.914 70.102 34.722 70.054C34.542 70.018 34.362 69.958 34.182 69.874L34.452 67.75C34.524 67.774 34.596 67.792 34.668 67.804C34.74 67.816 34.812 67.822 34.884 67.822C35.076 67.822 35.262 67.774 35.442 67.678C35.634 67.582 35.796 67.42 35.928 67.192C36.108 66.928 36.264 66.544 36.396 66.04C36.528 65.524 36.642 64.87 36.738 64.078C36.846 63.286 36.93 62.344 36.99 61.252C37.05 60.148 37.092 58.864 37.116 57.4H44.55V70H42.084V59.596ZM50.9229 62.962L51.2829 64.6H51.3909L51.6789 62.908L53.5689 57.4H56.1069L52.7589 66.112C52.4949 66.796 52.2369 67.39 51.9849 67.894C51.7449 68.398 51.4809 68.818 51.1929 69.154C50.9169 69.478 50.6049 69.724 50.2569 69.892C49.9089 70.048 49.5009 70.126 49.0329 70.126C48.6369 70.126 48.3129 70.096 48.0609 70.036C47.8209 69.988 47.5569 69.874 47.2689 69.694L47.8989 67.696C48.1029 67.804 48.2889 67.87 48.4569 67.894C48.6249 67.918 48.8049 67.93 48.9969 67.93C49.5609 67.93 49.9569 67.486 50.1849 66.598L45.4689 57.4H48.3669L50.9229 62.962ZM61.6164 57.4H63.9564V62.998L64.5864 62.746L67.1964 57.4H69.9684L67.0344 62.926L66.1884 63.538L67.2144 64.294L70.5264 70H67.5564L64.6584 64.528H63.9564V70H61.6164V64.312L60.9684 64.564L58.0704 70H55.1904L58.4844 64.474L59.4564 63.772L58.5204 63.106L55.4424 57.4H58.3044L60.9144 62.782H61.6164V57.4ZM78.84 63.016L78.984 61.378H78.894L78.048 63.07L73.35 70H71.496V57.4H73.962V64.258L73.782 65.95H73.89L74.772 64.204L79.47 57.4H81.306V70H78.84V63.016ZM91.9623 60.334C91.9623 60.646 91.9203 60.958 91.8363 61.27C91.7643 61.582 91.6383 61.87 91.4583 62.134C91.2783 62.386 91.0443 62.614 90.7563 62.818C90.4683 63.01 90.1203 63.154 89.7123 63.25V63.358C90.0723 63.418 90.4143 63.52 90.7383 63.664C91.0623 63.808 91.3443 64.006 91.5843 64.258C91.8243 64.51 92.0103 64.816 92.1423 65.176C92.2863 65.536 92.3583 65.962 92.3583 66.454C92.3583 67.102 92.2203 67.666 91.9443 68.146C91.6683 68.614 91.2963 68.998 90.8283 69.298C90.3723 69.598 89.8503 69.82 89.2623 69.964C88.6743 70.108 88.0683 70.18 87.4443 70.18C87.2403 70.18 86.9763 70.18 86.6523 70.18C86.3403 70.18 85.9983 70.168 85.6263 70.144C85.2663 70.132 84.8943 70.108 84.5103 70.072C84.1383 70.036 83.7963 69.982 83.4843 69.91V57.49C83.7123 57.454 83.9703 57.418 84.2583 57.382C84.5583 57.346 84.8763 57.316 85.2123 57.292C85.5483 57.268 85.8903 57.25 86.2383 57.238C86.5983 57.226 86.9523 57.22 87.3003 57.22C87.8883 57.22 88.4583 57.268 89.0103 57.364C89.5743 57.448 90.0723 57.604 90.5043 57.832C90.9483 58.06 91.3023 58.378 91.5663 58.786C91.8303 59.194 91.9623 59.71 91.9623 60.334ZM87.4623 68.146C87.7623 68.146 88.0503 68.11 88.3263 68.038C88.6143 67.966 88.8663 67.858 89.0823 67.714C89.2983 67.558 89.4723 67.366 89.6043 67.138C89.7363 66.91 89.8023 66.64 89.8023 66.328C89.8023 65.932 89.7243 65.62 89.5683 65.392C89.4123 65.164 89.2083 64.99 88.9563 64.87C88.7043 64.738 88.4223 64.654 88.1103 64.618C87.7983 64.582 87.4863 64.564 87.1743 64.564H85.8603V68.038C85.9203 68.062 86.0163 68.08 86.1483 68.092C86.2803 68.104 86.4183 68.116 86.5623 68.128C86.7183 68.128 86.8743 68.134 87.0303 68.146C87.1983 68.146 87.3423 68.146 87.4623 68.146ZM86.6523 62.692C86.8203 62.692 87.0123 62.686 87.2283 62.674C87.4563 62.662 87.6423 62.644 87.7863 62.62C88.2423 62.476 88.6323 62.26 88.9563 61.972C89.2923 61.684 89.4603 61.306 89.4603 60.838C89.4603 60.526 89.4003 60.268 89.2803 60.064C89.1603 59.86 88.9983 59.698 88.7943 59.578C88.6023 59.458 88.3803 59.374 88.1283 59.326C87.8763 59.278 87.6123 59.254 87.3363 59.254C87.0243 59.254 86.7363 59.26 86.4723 59.272C86.2083 59.284 86.0043 59.302 85.8603 59.326V62.692H86.6523ZM100.329 67.21H96.4591L95.5051 70H93.0391L97.5751 57.31H99.3931L103.929 70H101.337L100.329 67.21ZM97.0891 65.23H99.7891L98.8531 62.422L98.4751 60.442H98.3851L98.0071 62.44L97.0891 65.23ZM107.484 62.53H109.158C109.314 60.814 109.818 59.488 110.67 58.552C111.522 57.616 112.716 57.148 114.252 57.148C115.164 57.148 115.944 57.304 116.592 57.616C117.24 57.928 117.768 58.372 118.176 58.948C118.596 59.524 118.902 60.214 119.094 61.018C119.298 61.822 119.4 62.716 119.4 63.7C119.4 65.8 118.968 67.42 118.104 68.56C117.24 69.688 115.956 70.252 114.252 70.252C113.46 70.252 112.758 70.12 112.146 69.856C111.546 69.592 111.036 69.22 110.616 68.74C110.196 68.26 109.866 67.678 109.626 66.994C109.386 66.31 109.23 65.554 109.158 64.726H107.484V70H105.018V57.4H107.484V62.53ZM111.678 63.7C111.678 64.336 111.72 64.924 111.804 65.464C111.9 65.992 112.044 66.448 112.236 66.832C112.44 67.216 112.704 67.516 113.027 67.732C113.364 67.948 113.772 68.056 114.252 68.056C115.128 68.056 115.77 67.714 116.178 67.03C116.598 66.346 116.808 65.236 116.808 63.7C116.808 63.088 116.766 62.518 116.682 61.99C116.61 61.462 116.478 61 116.286 60.604C116.094 60.208 115.83 59.902 115.494 59.686C115.17 59.458 114.756 59.344 114.252 59.344C113.388 59.344 112.74 59.698 112.308 60.406C111.888 61.102 111.678 62.2 111.678 63.7ZM121.172 70V57.4H123.638V67.804H126.608V57.4H129.074V67.804H132.044V57.4H134.51V67.804H136.166V72.25H134.438L134.168 70H121.172ZM144.916 63.016L145.06 61.378H144.97L144.124 63.07L139.426 70H137.572V57.4H140.038V64.258L139.858 65.95H139.966L140.848 64.204L145.546 57.4H147.382V70H144.916V63.016ZM156.904 63.016L157.048 61.378H156.958L156.112 63.07L151.414 70H149.56V57.4H152.026V64.258L151.846 65.95H151.954L152.836 64.204L157.534 57.4H159.37V70H156.904V63.016ZM153.394 54.268C153.442 54.652 153.58 54.928 153.808 55.096C154.048 55.264 154.354 55.348 154.726 55.348C155.53 55.348 155.974 54.994 156.058 54.286L158.056 54.592C157.924 55.348 157.576 55.9 157.012 56.248C156.46 56.596 155.692 56.77 154.708 56.77C154.216 56.77 153.766 56.734 153.358 56.662C152.95 56.59 152.59 56.476 152.278 56.32C151.978 56.152 151.726 55.93 151.522 55.654C151.33 55.378 151.21 55.036 151.162 54.628L153.394 54.268ZM166.101 57.4H173.859V59.596H168.567V62.224C168.771 62.188 169.017 62.152 169.305 62.116C169.605 62.08 169.899 62.062 170.187 62.062C170.859 62.062 171.477 62.128 172.041 62.26C172.605 62.392 173.085 62.614 173.481 62.926C173.889 63.226 174.207 63.628 174.435 64.132C174.663 64.624 174.777 65.23 174.777 65.95C174.777 66.658 174.657 67.276 174.417 67.804C174.189 68.332 173.853 68.77 173.409 69.118C172.977 69.466 172.449 69.73 171.825 69.91C171.213 70.09 170.523 70.18 169.755 70.18C169.551 70.18 169.293 70.174 168.981 70.162C168.681 70.15 168.357 70.132 168.009 70.108C167.673 70.084 167.337 70.054 167.001 70.018C166.665 69.982 166.365 69.934 166.101 69.874V57.4ZM169.935 68.146C170.247 68.146 170.535 68.11 170.799 68.038C171.075 67.954 171.315 67.834 171.519 67.678C171.723 67.51 171.885 67.3 172.005 67.048C172.125 66.796 172.185 66.49 172.185 66.13C172.185 65.698 172.119 65.35 171.987 65.086C171.855 64.822 171.675 64.618 171.447 64.474C171.219 64.318 170.955 64.216 170.655 64.168C170.367 64.12 170.055 64.096 169.719 64.096C169.551 64.096 169.341 64.114 169.089 64.15C168.837 64.174 168.663 64.198 168.567 64.222V68.056C168.699 68.092 168.897 68.116 169.161 68.128C169.437 68.14 169.695 68.146 169.935 68.146ZM175.971 63.7C175.971 61.6 176.433 59.986 177.357 58.858C178.281 57.718 179.601 57.148 181.317 57.148C182.217 57.148 183.003 57.304 183.675 57.616C184.347 57.928 184.905 58.372 185.349 58.948C185.793 59.524 186.123 60.214 186.339 61.018C186.555 61.822 186.663 62.716 186.663 63.7C186.663 65.8 186.195 67.42 185.259 68.56C184.335 69.688 183.021 70.252 181.317 70.252C180.405 70.252 179.613 70.096 178.941 69.784C178.269 69.472 177.711 69.028 177.267 68.452C176.835 67.876 176.511 67.186 176.295 66.382C176.079 65.578 175.971 64.684 175.971 63.7ZM178.563 63.7C178.563 64.336 178.617 64.924 178.725 65.464C178.833 65.992 178.995 66.448 179.211 66.832C179.439 67.216 179.727 67.516 180.075 67.732C180.423 67.948 180.837 68.056 181.317 68.056C182.193 68.056 182.871 67.714 183.351 67.03C183.831 66.346 184.071 65.236 184.071 63.7C184.071 63.088 184.017 62.518 183.909 61.99C183.813 61.462 183.657 61 183.441 60.604C183.225 60.208 182.943 59.902 182.595 59.686C182.247 59.458 181.821 59.344 181.317 59.344C180.441 59.344 179.763 59.698 179.283 60.406C178.803 61.102 178.563 62.2 178.563 63.7ZM194.715 59.596H192.033C191.985 60.736 191.931 61.774 191.871 62.71C191.811 63.646 191.727 64.492 191.619 65.248C191.523 65.992 191.391 66.652 191.223 67.228C191.055 67.804 190.839 68.302 190.575 68.722C190.407 68.998 190.215 69.226 189.999 69.406C189.795 69.586 189.579 69.73 189.351 69.838C189.123 69.946 188.895 70.018 188.667 70.054C188.451 70.102 188.247 70.126 188.055 70.126C187.779 70.126 187.545 70.102 187.353 70.054C187.173 70.018 186.993 69.958 186.813 69.874L187.083 67.75C187.155 67.774 187.227 67.792 187.299 67.804C187.371 67.816 187.443 67.822 187.515 67.822C187.707 67.822 187.893 67.774 188.073 67.678C188.265 67.582 188.427 67.42 188.559 67.192C188.739 66.928 188.895 66.544 189.027 66.04C189.159 65.524 189.273 64.87 189.369 64.078C189.477 63.286 189.561 62.344 189.621 61.252C189.681 60.148 189.723 58.864 189.747 57.4H197.181V70H194.715V59.596ZM199.342 57.4H201.808V61.918C201.868 61.906 201.964 61.894 202.096 61.882C202.24 61.858 202.39 61.84 202.546 61.828C202.714 61.816 202.882 61.804 203.05 61.792C203.218 61.78 203.374 61.774 203.518 61.774C204.106 61.774 204.676 61.834 205.228 61.954C205.78 62.074 206.266 62.29 206.686 62.602C207.118 62.902 207.46 63.316 207.712 63.844C207.964 64.36 208.09 65.02 208.09 65.824C208.09 67.264 207.64 68.35 206.74 69.082C205.852 69.814 204.574 70.18 202.906 70.18C202.738 70.18 202.51 70.174 202.222 70.162C201.946 70.162 201.64 70.15 201.304 70.126C200.968 70.102 200.626 70.072 200.278 70.036C199.942 70 199.63 69.946 199.342 69.874V57.4ZM203.032 67.984C203.368 67.984 203.686 67.954 203.986 67.894C204.286 67.822 204.55 67.708 204.778 67.552C205.006 67.384 205.18 67.168 205.3 66.904C205.432 66.64 205.498 66.316 205.498 65.932C205.498 65.524 205.426 65.194 205.282 64.942C205.15 64.678 204.97 64.474 204.742 64.33C204.526 64.186 204.268 64.09 203.968 64.042C203.668 63.994 203.356 63.97 203.032 63.97C202.948 63.97 202.846 63.976 202.726 63.988C202.606 64 202.486 64.012 202.366 64.024C202.246 64.036 202.132 64.054 202.024 64.078C201.928 64.09 201.856 64.102 201.808 64.114V67.876C201.94 67.912 202.114 67.942 202.33 67.966C202.558 67.978 202.792 67.984 203.032 67.984ZM209.59 70V57.4H212.056V67.804H215.026V57.4H217.492V67.804H220.462V57.4H222.928V70H209.59ZM225.094 57.4H232.564V59.596H227.56V62.53H232.114V64.726H227.56V67.804H232.654V70H225.094V57.4ZM241.824 59.596H236.964V70H234.498V57.4H241.824V59.596ZM241.959 63.7C241.959 61.6 242.421 59.986 243.345 58.858C244.269 57.718 245.589 57.148 247.305 57.148C248.205 57.148 248.991 57.304 249.663 57.616C250.335 57.928 250.893 58.372 251.337 58.948C251.781 59.524 252.111 60.214 252.327 61.018C252.543 61.822 252.651 62.716 252.651 63.7C252.651 65.8 252.183 67.42 251.247 68.56C250.323 69.688 249.009 70.252 247.305 70.252C246.393 70.252 245.601 70.096 244.929 69.784C244.257 69.472 243.699 69.028 243.255 68.452C242.823 67.876 242.499 67.186 242.283 66.382C242.067 65.578 241.959 64.684 241.959 63.7ZM244.551 63.7C244.551 64.336 244.605 64.924 244.713 65.464C244.821 65.992 244.983 66.448 245.199 66.832C245.427 67.216 245.715 67.516 246.063 67.732C246.411 67.948 246.825 68.056 247.305 68.056C248.181 68.056 248.859 67.714 249.339 67.03C249.819 66.346 250.059 65.236 250.059 63.7C250.059 63.088 250.005 62.518 249.897 61.99C249.801 61.462 249.645 61 249.429 60.604C249.213 60.208 248.931 59.902 248.583 59.686C248.235 59.458 247.809 59.344 247.305 59.344C246.429 59.344 245.751 59.698 245.271 60.406C244.791 61.102 244.551 62.2 244.551 63.7ZM255.134 57.4H257.546V63.322L257.078 66.256H255.602L255.134 63.322V57.4ZM254.882 68.812C254.882 68.392 255.014 68.062 255.278 67.822C255.542 67.57 255.89 67.444 256.322 67.444C256.778 67.444 257.138 67.57 257.402 67.822C257.666 68.062 257.798 68.392 257.798 68.812C257.798 69.232 257.666 69.568 257.402 69.82C257.138 70.072 256.778 70.198 256.322 70.198C255.89 70.198 255.542 70.072 255.278 69.82C255.014 69.568 254.882 69.232 254.882 68.812Z" fill="black"/>
<path d="M9.10309 114.298C9.45775 114.214 9.84042 114.158 10.2511 114.13C10.6618 114.102 11.0678 114.088 11.4691 114.088C11.8984 114.088 12.3324 114.13 12.7711 114.214C13.2191 114.298 13.6251 114.452 13.9891 114.676C14.3531 114.9 14.6471 115.208 14.8711 115.6C15.1044 115.992 15.2211 116.491 15.2211 117.098C15.2211 117.695 15.1138 118.199 14.8991 118.61C14.6844 119.021 14.3998 119.357 14.0451 119.618C13.6904 119.87 13.2844 120.052 12.8271 120.164C12.3698 120.276 11.8984 120.332 11.4131 120.332C11.3664 120.332 11.2871 120.332 11.1751 120.332C11.0724 120.332 10.9604 120.332 10.8391 120.332C10.7271 120.323 10.6151 120.313 10.5031 120.304C10.3911 120.295 10.3118 120.285 10.2651 120.276V124H9.10309V114.298ZM11.4971 115.096C11.2544 115.096 11.0211 115.101 10.7971 115.11C10.5731 115.119 10.3958 115.143 10.2651 115.18V119.24C10.3118 119.259 10.3864 119.273 10.4891 119.282C10.5918 119.282 10.6991 119.287 10.8111 119.296C10.9231 119.296 11.0304 119.296 11.1331 119.296C11.2358 119.296 11.3104 119.296 11.3571 119.296C11.6744 119.296 11.9871 119.268 12.2951 119.212C12.6124 119.147 12.8971 119.035 13.1491 118.876C13.4011 118.717 13.6018 118.493 13.7511 118.204C13.9098 117.915 13.9891 117.546 13.9891 117.098C13.9891 116.715 13.9144 116.398 13.7651 116.146C13.6251 115.885 13.4338 115.679 13.1911 115.53C12.9578 115.371 12.6918 115.259 12.3931 115.194C12.0944 115.129 11.7958 115.096 11.4971 115.096ZM20.6967 121.284H17.0847L16.1047 124H14.9567L18.6667 114.046H19.1987L22.9227 124H21.7047L20.6967 121.284ZM17.4627 120.276H20.3467L19.2547 117.294L18.9047 115.81H18.8907L18.5407 117.322L17.4627 120.276ZM30.1407 123.594C29.8607 123.809 29.506 123.958 29.0767 124.042C28.6474 124.126 28.19 124.168 27.7047 124.168C27.1167 124.168 26.566 124.07 26.0527 123.874C25.5394 123.669 25.0914 123.361 24.7087 122.95C24.326 122.539 24.0227 122.017 23.7987 121.382C23.5747 120.738 23.4627 119.977 23.4627 119.1C23.4627 118.185 23.584 117.411 23.8267 116.776C24.0787 116.132 24.4054 115.609 24.8067 115.208C25.2174 114.797 25.6747 114.499 26.1787 114.312C26.6827 114.125 27.196 114.032 27.7187 114.032C28.2787 114.032 28.736 114.065 29.0907 114.13C29.4454 114.186 29.7487 114.265 30.0007 114.368L29.7207 115.39C29.2727 115.175 28.6334 115.068 27.8027 115.068C27.42 115.068 27.042 115.138 26.6687 115.278C26.2954 115.418 25.9594 115.647 25.6607 115.964C25.3714 116.281 25.138 116.697 24.9607 117.21C24.7834 117.723 24.6947 118.353 24.6947 119.1C24.6947 119.772 24.7787 120.36 24.9467 120.864C25.1147 121.368 25.3434 121.788 25.6327 122.124C25.9314 122.46 26.2767 122.712 26.6687 122.88C27.07 123.048 27.504 123.132 27.9707 123.132C28.3907 123.132 28.7547 123.09 29.0627 123.006C29.38 122.922 29.646 122.815 29.8607 122.684L30.1407 123.594ZM37.7696 123.594C37.4896 123.809 37.135 123.958 36.7056 124.042C36.2763 124.126 35.819 124.168 35.3336 124.168C34.7456 124.168 34.195 124.07 33.6816 123.874C33.1683 123.669 32.7203 123.361 32.3376 122.95C31.955 122.539 31.6516 122.017 31.4276 121.382C31.2036 120.738 31.0916 119.977 31.0916 119.1C31.0916 118.185 31.213 117.411 31.4556 116.776C31.7076 116.132 32.0343 115.609 32.4356 115.208C32.8463 114.797 33.3036 114.499 33.8076 114.312C34.3116 114.125 34.825 114.032 35.3476 114.032C35.9076 114.032 36.365 114.065 36.7196 114.13C37.0743 114.186 37.3776 114.265 37.6296 114.368L37.3496 115.39C36.9016 115.175 36.2623 115.068 35.4316 115.068C35.049 115.068 34.671 115.138 34.2976 115.278C33.9243 115.418 33.5883 115.647 33.2896 115.964C33.0003 116.281 32.767 116.697 32.5896 117.21C32.4123 117.723 32.3236 118.353 32.3236 119.1C32.3236 119.772 32.4076 120.36 32.5756 120.864C32.7436 121.368 32.9723 121.788 33.2616 122.124C33.5603 122.46 33.9056 122.712 34.2976 122.88C34.699 123.048 35.133 123.132 35.5996 123.132C36.0196 123.132 36.3836 123.09 36.6916 123.006C37.009 122.922 37.275 122.815 37.4896 122.684L37.7696 123.594ZM47.0277 117.42L47.1677 115.95H47.0977L46.5657 117.294L44.0177 121.718H43.6677L40.9657 117.28L40.4617 115.95H40.3917L40.5877 117.406V124H39.4957V114.2H40.3637L43.4297 119.212L43.8917 120.304H43.9197L44.3537 119.184L47.2797 114.2H48.1897V124H47.0277V117.42ZM50.1639 119.1C50.1639 117.467 50.5092 116.216 51.1999 115.348C51.8905 114.471 52.8752 114.032 54.1539 114.032C54.8445 114.032 55.4419 114.153 55.9459 114.396C56.4499 114.639 56.8652 114.984 57.1919 115.432C57.5279 115.871 57.7752 116.403 57.9339 117.028C58.0925 117.644 58.1719 118.335 58.1719 119.1C58.1719 120.733 57.8219 121.989 57.1219 122.866C56.4312 123.734 55.4419 124.168 54.1539 124.168C53.4725 124.168 52.8799 124.047 52.3759 123.804C51.8812 123.561 51.4659 123.221 51.1299 122.782C50.8032 122.334 50.5605 121.802 50.4019 121.186C50.2432 120.561 50.1639 119.865 50.1639 119.1ZM51.3959 119.1C51.3959 119.641 51.4472 120.155 51.5499 120.64C51.6619 121.125 51.8299 121.555 52.0539 121.928C52.2779 122.292 52.5625 122.586 52.9079 122.81C53.2625 123.025 53.6779 123.132 54.1539 123.132C55.0219 123.132 55.7032 122.805 56.1979 122.152C56.6925 121.489 56.9399 120.472 56.9399 119.1C56.9399 118.568 56.8839 118.059 56.7719 117.574C56.6692 117.079 56.5012 116.65 56.2679 116.286C56.0439 115.913 55.7545 115.619 55.3999 115.404C55.0545 115.18 54.6392 115.068 54.1539 115.068C53.2952 115.068 52.6185 115.399 52.1239 116.062C51.6385 116.715 51.3959 117.728 51.3959 119.1ZM65.7983 115.236H62.7463V124H61.5843V115.236H58.5323V114.2H65.7983V115.236ZM67.2359 114.298C67.5906 114.214 67.9732 114.158 68.3839 114.13C68.7946 114.102 69.2006 114.088 69.6019 114.088C70.0312 114.088 70.4652 114.13 70.9039 114.214C71.3519 114.298 71.7579 114.452 72.1219 114.676C72.4859 114.9 72.7799 115.208 73.0039 115.6C73.2372 115.992 73.3539 116.491 73.3539 117.098C73.3539 117.695 73.2466 118.199 73.0319 118.61C72.8172 119.021 72.5326 119.357 72.1779 119.618C71.8232 119.87 71.4172 120.052 70.9599 120.164C70.5026 120.276 70.0312 120.332 69.5459 120.332C69.4992 120.332 69.4199 120.332 69.3079 120.332C69.2052 120.332 69.0932 120.332 68.9719 120.332C68.8599 120.323 68.7479 120.313 68.6359 120.304C68.5239 120.295 68.4446 120.285 68.3979 120.276V124H67.2359V114.298ZM69.6299 115.096C69.3872 115.096 69.1539 115.101 68.9299 115.11C68.7059 115.119 68.5286 115.143 68.3979 115.18V119.24C68.4446 119.259 68.5192 119.273 68.6219 119.282C68.7246 119.282 68.8319 119.287 68.9439 119.296C69.0559 119.296 69.1632 119.296 69.2659 119.296C69.3686 119.296 69.4432 119.296 69.4899 119.296C69.8072 119.296 70.1199 119.268 70.4279 119.212C70.7452 119.147 71.0299 119.035 71.2819 118.876C71.5339 118.717 71.7346 118.493 71.8839 118.204C72.0426 117.915 72.1219 117.546 72.1219 117.098C72.1219 116.715 72.0472 116.398 71.8979 116.146C71.7579 115.885 71.5666 115.679 71.3239 115.53C71.0906 115.371 70.8246 115.259 70.5259 115.194C70.2272 115.129 69.9286 115.096 69.6299 115.096ZM81.0482 117.364L81.1322 116.244H81.0762L80.4742 117.392L75.7422 124H75.0562V114.2H76.2182V120.92L76.1202 122.026H76.1762L76.7922 120.878L81.5242 114.2H82.2102V124H81.0482V117.364ZM92.1175 117.42L92.2575 115.95H92.1875L91.6555 117.294L89.1075 121.718H88.7575L86.0555 117.28L85.5515 115.95H85.4815L85.6775 117.406V124H84.5855V114.2H85.4535L88.5195 119.212L88.9815 120.304H89.0095L89.4435 119.184L92.3695 114.2H93.2795V124H92.1175V117.42ZM101.184 123.188C101.828 123.188 102.36 123.001 102.78 122.628C103.2 122.255 103.41 121.713 103.41 121.004C103.41 120.323 103.2 119.814 102.78 119.478C102.369 119.142 101.8 118.974 101.072 118.974L99.8961 119.044V114.2H104.264V115.236H100.946V118.022L101.548 117.994C102.472 118.003 103.2 118.26 103.732 118.764C104.264 119.268 104.53 119.991 104.53 120.934C104.53 121.457 104.441 121.923 104.264 122.334C104.087 122.735 103.844 123.071 103.536 123.342C103.237 123.613 102.883 123.818 102.472 123.958C102.061 124.098 101.623 124.168 101.156 124.168C100.736 124.168 100.381 124.145 100.092 124.098C99.8028 124.051 99.5321 123.981 99.2801 123.888L99.5741 122.936C99.7888 123.02 100.017 123.085 100.26 123.132C100.512 123.169 100.82 123.188 101.184 123.188ZM116.437 115.236H111.915V124H110.753V114.2H117.599V124H116.437V115.236ZM119.982 114.298C120.337 114.214 120.719 114.158 121.13 114.13C121.541 114.102 121.947 114.088 122.348 114.088C122.777 114.088 123.211 114.13 123.65 114.214C124.098 114.298 124.504 114.452 124.868 114.676C125.232 114.9 125.526 115.208 125.75 115.6C125.983 115.992 126.1 116.491 126.1 117.098C126.1 117.695 125.993 118.199 125.778 118.61C125.563 119.021 125.279 119.357 124.924 119.618C124.569 119.87 124.163 120.052 123.706 120.164C123.249 120.276 122.777 120.332 122.292 120.332C122.245 120.332 122.166 120.332 122.054 120.332C121.951 120.332 121.839 120.332 121.718 120.332C121.606 120.323 121.494 120.313 121.382 120.304C121.27 120.295 121.191 120.285 121.144 120.276V124H119.982V114.298ZM122.376 115.096C122.133 115.096 121.9 115.101 121.676 115.11C121.452 115.119 121.275 115.143 121.144 115.18V119.24C121.191 119.259 121.265 119.273 121.368 119.282C121.471 119.282 121.578 119.287 121.69 119.296C121.802 119.296 121.909 119.296 122.012 119.296C122.115 119.296 122.189 119.296 122.236 119.296C122.553 119.296 122.866 119.268 123.174 119.212C123.491 119.147 123.776 119.035 124.028 118.876C124.28 118.717 124.481 118.493 124.63 118.204C124.789 117.915 124.868 117.546 124.868 117.098C124.868 116.715 124.793 116.398 124.644 116.146C124.504 115.885 124.313 115.679 124.07 115.53C123.837 115.371 123.571 115.259 123.272 115.194C122.973 115.129 122.675 115.096 122.376 115.096ZM133.794 117.364L133.878 116.244H133.822L133.22 117.392L128.488 124H127.802V114.2H128.964V120.92L128.866 122.026H128.922L129.538 120.878L134.27 114.2H134.956V124H133.794V117.364ZM138.354 114.2V117.448C138.354 118.727 138.932 119.366 140.09 119.366C140.528 119.366 140.939 119.31 141.322 119.198C141.704 119.077 142.017 118.918 142.26 118.722V114.2H143.422V124H142.26V119.772C142.008 119.912 141.676 120.052 141.266 120.192C140.855 120.332 140.384 120.402 139.852 120.402C139.46 120.402 139.1 120.36 138.774 120.276C138.447 120.183 138.167 120.033 137.934 119.828C137.7 119.613 137.518 119.329 137.388 118.974C137.257 118.619 137.192 118.181 137.192 117.658V114.2H138.354ZM151.8 117.364L151.884 116.244H151.828L151.226 117.392L146.494 124H145.808V114.2H146.97V120.92L146.872 122.026H146.928L147.544 120.878L152.276 114.2H152.962V124H151.8V117.364ZM161.203 119.506H156.499V124H155.337V114.2H156.499V118.47H161.203V114.2H162.365V124H161.203V119.506ZM164.24 123.398C164.24 123.174 164.314 122.992 164.464 122.852C164.613 122.712 164.804 122.642 165.038 122.642C165.327 122.642 165.56 122.745 165.738 122.95C165.924 123.155 166.018 123.454 166.018 123.846C166.018 124.182 165.971 124.476 165.878 124.728C165.784 124.98 165.663 125.195 165.514 125.372C165.364 125.559 165.201 125.708 165.024 125.82C164.846 125.941 164.669 126.03 164.492 126.086L164.142 125.54C164.478 125.409 164.725 125.204 164.884 124.924C165.052 124.653 165.136 124.378 165.136 124.098C165.052 124.126 164.972 124.14 164.898 124.14C164.711 124.14 164.552 124.079 164.422 123.958C164.3 123.827 164.24 123.641 164.24 123.398ZM175.801 115.236H171.279V124H170.117V114.2H176.963V124H175.801V115.236ZM178.939 119.1C178.939 117.467 179.285 116.216 179.975 115.348C180.666 114.471 181.651 114.032 182.929 114.032C183.62 114.032 184.217 114.153 184.721 114.396C185.225 114.639 185.641 114.984 185.967 115.432C186.303 115.871 186.551 116.403 186.709 117.028C186.868 117.644 186.947 118.335 186.947 119.1C186.947 120.733 186.597 121.989 185.897 122.866C185.207 123.734 184.217 124.168 182.929 124.168C182.248 124.168 181.655 124.047 181.151 123.804C180.657 123.561 180.241 123.221 179.905 122.782C179.579 122.334 179.336 121.802 179.177 121.186C179.019 120.561 178.939 119.865 178.939 119.1ZM180.171 119.1C180.171 119.641 180.223 120.155 180.325 120.64C180.437 121.125 180.605 121.555 180.829 121.928C181.053 122.292 181.338 122.586 181.683 122.81C182.038 123.025 182.453 123.132 182.929 123.132C183.797 123.132 184.479 122.805 184.973 122.152C185.468 121.489 185.715 120.472 185.715 119.1C185.715 118.568 185.659 118.059 185.547 117.574C185.445 117.079 185.277 116.65 185.043 116.286C184.819 115.913 184.53 115.619 184.175 115.404C183.83 115.18 183.415 115.068 182.929 115.068C182.071 115.068 181.394 115.399 180.899 116.062C180.414 116.715 180.171 117.728 180.171 119.1ZM194.468 119.464H193.81V124H192.648V114.2H193.81V118.764L194.44 118.568L197.73 114.2H199.074L195.798 118.414L195.21 118.876L195.924 119.436L199.508 124H198.038L194.468 119.464ZM200.65 119.1C200.65 117.467 200.996 116.216 201.686 115.348C202.377 114.471 203.362 114.032 204.64 114.032C205.331 114.032 205.928 114.153 206.432 114.396C206.936 114.639 207.352 114.984 207.678 115.432C208.014 115.871 208.262 116.403 208.42 117.028C208.579 117.644 208.658 118.335 208.658 119.1C208.658 120.733 208.308 121.989 207.608 122.866C206.918 123.734 205.928 124.168 204.64 124.168C203.959 124.168 203.366 124.047 202.862 123.804C202.368 123.561 201.952 123.221 201.616 122.782C201.29 122.334 201.047 121.802 200.888 121.186C200.73 120.561 200.65 119.865 200.65 119.1ZM201.882 119.1C201.882 119.641 201.934 120.155 202.036 120.64C202.148 121.125 202.316 121.555 202.54 121.928C202.764 122.292 203.049 122.586 203.394 122.81C203.749 123.025 204.164 123.132 204.64 123.132C205.508 123.132 206.19 122.805 206.684 122.152C207.179 121.489 207.426 120.472 207.426 119.1C207.426 118.568 207.37 118.059 207.258 117.574C207.156 117.079 206.988 116.65 206.754 116.286C206.53 115.913 206.241 115.619 205.886 115.404C205.541 115.18 205.126 115.068 204.64 115.068C203.782 115.068 203.105 115.399 202.61 116.062C202.125 116.715 201.882 117.728 201.882 119.1ZM216.285 115.236H213.233V124H212.071V115.236H209.019V114.2H216.285V115.236ZM216.646 119.1C216.646 117.467 216.992 116.216 217.682 115.348C218.373 114.471 219.358 114.032 220.636 114.032C221.327 114.032 221.924 114.153 222.428 114.396C222.932 114.639 223.348 114.984 223.674 115.432C224.01 115.871 224.258 116.403 224.416 117.028C224.575 117.644 224.654 118.335 224.654 119.1C224.654 120.733 224.304 121.989 223.604 122.866C222.914 123.734 221.924 124.168 220.636 124.168C219.955 124.168 219.362 124.047 218.858 123.804C218.364 123.561 217.948 123.221 217.612 122.782C217.286 122.334 217.043 121.802 216.884 121.186C216.726 120.561 216.646 119.865 216.646 119.1ZM217.878 119.1C217.878 119.641 217.93 120.155 218.032 120.64C218.144 121.125 218.312 121.555 218.536 121.928C218.76 122.292 219.045 122.586 219.39 122.81C219.745 123.025 220.16 123.132 220.636 123.132C221.504 123.132 222.186 122.805 222.68 122.152C223.175 121.489 223.422 120.472 223.422 119.1C223.422 118.568 223.366 118.059 223.254 117.574C223.152 117.079 222.984 116.65 222.75 116.286C222.526 115.913 222.237 115.619 221.882 115.404C221.537 115.18 221.122 115.068 220.636 115.068C219.778 115.068 219.101 115.399 218.606 116.062C218.121 116.715 217.878 117.728 217.878 119.1ZM226.623 114.298C226.977 114.214 227.36 114.158 227.771 114.13C228.181 114.102 228.587 114.088 228.989 114.088C229.418 114.088 229.852 114.13 230.291 114.214C230.739 114.298 231.145 114.452 231.509 114.676C231.873 114.9 232.167 115.208 232.391 115.6C232.624 115.992 232.741 116.491 232.741 117.098C232.741 117.695 232.633 118.199 232.419 118.61C232.204 119.021 231.919 119.357 231.565 119.618C231.21 119.87 230.804 120.052 230.347 120.164C229.889 120.276 229.418 120.332 228.933 120.332C228.886 120.332 228.807 120.332 228.695 120.332C228.592 120.332 228.48 120.332 228.359 120.332C228.247 120.323 228.135 120.313 228.023 120.304C227.911 120.295 227.831 120.285 227.785 120.276V124H226.623V114.298ZM229.017 115.096C228.774 115.096 228.541 115.101 228.317 115.11C228.093 115.119 227.915 115.143 227.785 115.18V119.24C227.831 119.259 227.906 119.273 228.009 119.282C228.111 119.282 228.219 119.287 228.331 119.296C228.443 119.296 228.55 119.296 228.653 119.296C228.755 119.296 228.83 119.296 228.877 119.296C229.194 119.296 229.507 119.268 229.815 119.212C230.132 119.147 230.417 119.035 230.669 118.876C230.921 118.717 231.121 118.493 231.271 118.204C231.429 117.915 231.509 117.546 231.509 117.098C231.509 116.715 231.434 116.398 231.285 116.146C231.145 115.885 230.953 115.679 230.711 115.53C230.477 115.371 230.211 115.259 229.913 115.194C229.614 115.129 229.315 115.096 229.017 115.096ZM241.667 114.2H242.829V124H241.667V114.2ZM234.443 114.2H235.605V118.008C235.652 117.999 235.722 117.989 235.815 117.98C235.908 117.961 236.011 117.947 236.123 117.938C236.235 117.929 236.347 117.919 236.459 117.91C236.58 117.901 236.697 117.896 236.809 117.896C237.248 117.896 237.672 117.943 238.083 118.036C238.503 118.12 238.872 118.274 239.189 118.498C239.506 118.722 239.758 119.025 239.945 119.408C240.141 119.781 240.239 120.257 240.239 120.836C240.239 121.396 240.15 121.886 239.973 122.306C239.796 122.717 239.544 123.057 239.217 123.328C238.9 123.589 238.517 123.785 238.069 123.916C237.621 124.047 237.126 124.112 236.585 124.112C236.454 124.112 236.3 124.107 236.123 124.098C235.955 124.098 235.773 124.089 235.577 124.07C235.39 124.061 235.199 124.042 235.003 124.014C234.807 123.986 234.62 123.949 234.443 123.902V114.2ZM236.683 123.104C237.355 123.104 237.91 122.922 238.349 122.558C238.788 122.194 239.007 121.648 239.007 120.92C239.007 120.528 238.942 120.201 238.811 119.94C238.68 119.679 238.503 119.473 238.279 119.324C238.064 119.165 237.812 119.058 237.523 119.002C237.243 118.937 236.944 118.904 236.627 118.904C236.459 118.904 236.272 118.918 236.067 118.946C235.862 118.974 235.708 119.002 235.605 119.03V123.02C235.857 123.076 236.216 123.104 236.683 123.104ZM252.735 117.42L252.875 115.95H252.805L252.273 117.294L249.725 121.718H249.375L246.673 117.28L246.169 115.95H246.099L246.295 117.406V124H245.203V114.2H246.071L249.137 119.212L249.599 120.304H249.627L250.061 119.184L252.987 114.2H253.897V124H252.735V117.42ZM23.1612 149.594C22.8812 149.809 22.5266 149.958 22.0972 150.042C21.6679 150.126 21.2106 150.168 20.7252 150.168C20.1372 150.168 19.5866 150.07 19.0732 149.874C18.5599 149.669 18.1119 149.361 17.7292 148.95C17.3466 148.539 17.0432 148.017 16.8192 147.382C16.5952 146.738 16.4832 145.977 16.4832 145.1C16.4832 144.185 16.6046 143.411 16.8472 142.776C17.0992 142.132 17.4259 141.609 17.8272 141.208C18.2379 140.797 18.6952 140.499 19.1992 140.312C19.7032 140.125 20.2166 140.032 20.7392 140.032C21.2992 140.032 21.7566 140.065 22.1112 140.13C22.4659 140.186 22.7692 140.265 23.0212 140.368L22.7412 141.39C22.2932 141.175 21.6539 141.068 20.8232 141.068C20.4406 141.068 20.0626 141.138 19.6892 141.278C19.3159 141.418 18.9799 141.647 18.6812 141.964C18.3919 142.281 18.1586 142.697 17.9812 143.21C17.8039 143.723 17.7152 144.353 17.7152 145.1C17.7152 145.772 17.7992 146.36 17.9672 146.864C18.1352 147.368 18.3639 147.788 18.6532 148.124C18.9519 148.46 19.2972 148.712 19.6892 148.88C20.0906 149.048 20.5246 149.132 20.9912 149.132C21.4112 149.132 21.7752 149.09 22.0832 149.006C22.4006 148.922 22.6666 148.815 22.8812 148.684L23.1612 149.594ZM24.8873 140.2H30.2213V141.236H26.0493V144.442H29.8713V145.478H26.0493V148.964H30.2913V150H24.8873V140.2ZM40.1771 151.806H39.3791L39.1691 150H32.2951L32.0851 151.806H31.2731V148.964H32.2671C32.3418 148.861 32.4538 148.623 32.6031 148.25C32.7618 147.867 32.9158 147.326 33.0651 146.626C33.2238 145.917 33.3638 145.035 33.4851 143.98C33.6065 142.916 33.6671 141.656 33.6671 140.2H38.9031V148.964H40.1771V151.806ZM37.7411 148.964V141.236H34.7591C34.7311 142.263 34.6751 143.187 34.5911 144.008C34.5165 144.829 34.4231 145.557 34.3111 146.192C34.1991 146.817 34.0731 147.359 33.9331 147.816C33.7931 148.273 33.6485 148.656 33.4991 148.964H37.7411ZM41.0242 145.1C41.0242 143.467 41.3696 142.216 42.0602 141.348C42.7509 140.471 43.7356 140.032 45.0142 140.032C45.7049 140.032 46.3022 140.153 46.8062 140.396C47.3102 140.639 47.7256 140.984 48.0522 141.432C48.3882 141.871 48.6356 142.403 48.7942 143.028C48.9529 143.644 49.0322 144.335 49.0322 145.1C49.0322 146.733 48.6822 147.989 47.9822 148.866C47.2916 149.734 46.3022 150.168 45.0142 150.168C44.3329 150.168 43.7402 150.047 43.2362 149.804C42.7416 149.561 42.3262 149.221 41.9902 148.782C41.6636 148.334 41.4209 147.802 41.2622 147.186C41.1036 146.561 41.0242 145.865 41.0242 145.1ZM42.2562 145.1C42.2562 145.641 42.3076 146.155 42.4102 146.64C42.5222 147.125 42.6902 147.555 42.9142 147.928C43.1382 148.292 43.4229 148.586 43.7682 148.81C44.1229 149.025 44.5382 149.132 45.0142 149.132C45.8822 149.132 46.5636 148.805 47.0582 148.152C47.5529 147.489 47.8002 146.472 47.8002 145.1C47.8002 144.568 47.7442 144.059 47.6322 143.574C47.5296 143.079 47.3616 142.65 47.1282 142.286C46.9042 141.913 46.6149 141.619 46.2602 141.404C45.9149 141.18 45.4996 141.068 45.0142 141.068C44.1556 141.068 43.4789 141.399 42.9842 142.062C42.4989 142.715 42.2562 143.728 42.2562 145.1ZM56.8665 145.506H52.1625V150H51.0005V140.2H52.1625V144.47H56.8665V140.2H58.0285V150H56.8665V145.506ZM65.0688 147.284H61.4568L60.4768 150H59.3288L63.0388 140.046H63.5708L67.2948 150H66.0768L65.0688 147.284ZM61.8348 146.276H64.7188L63.6268 143.294L63.2768 141.81H63.2628L62.9128 143.322L61.8348 146.276ZM73.5745 145.464H72.9165V150H71.7545V140.2H72.9165V144.764L73.5465 144.568L76.8365 140.2H78.1805L74.9045 144.414L74.3165 144.876L75.0305 145.436L78.6145 150H77.1445L73.5745 145.464ZM80.2994 140.298C80.654 140.214 81.0367 140.158 81.4474 140.13C81.858 140.102 82.264 140.088 82.6654 140.088C83.0947 140.088 83.5287 140.13 83.9674 140.214C84.4154 140.298 84.8214 140.452 85.1854 140.676C85.5494 140.9 85.8434 141.208 86.0674 141.6C86.3007 141.992 86.4174 142.491 86.4174 143.098C86.4174 143.695 86.31 144.199 86.0954 144.61C85.8807 145.021 85.596 145.357 85.2414 145.618C84.8867 145.87 84.4807 146.052 84.0234 146.164C83.566 146.276 83.0947 146.332 82.6094 146.332C82.5627 146.332 82.4834 146.332 82.3714 146.332C82.2687 146.332 82.1567 146.332 82.0354 146.332C81.9234 146.323 81.8114 146.313 81.6994 146.304C81.5874 146.295 81.508 146.285 81.4614 146.276V150H80.2994V140.298ZM82.6934 141.096C82.4507 141.096 82.2174 141.101 81.9934 141.11C81.7694 141.119 81.592 141.143 81.4614 141.18V145.24C81.508 145.259 81.5827 145.273 81.6854 145.282C81.788 145.282 81.8954 145.287 82.0074 145.296C82.1194 145.296 82.2267 145.296 82.3294 145.296C82.432 145.296 82.5067 145.296 82.5534 145.296C82.8707 145.296 83.1834 145.268 83.4914 145.212C83.8087 145.147 84.0934 145.035 84.3454 144.876C84.5974 144.717 84.798 144.493 84.9474 144.204C85.106 143.915 85.1854 143.546 85.1854 143.098C85.1854 142.715 85.1107 142.398 84.9614 142.146C84.8214 141.885 84.63 141.679 84.3874 141.53C84.154 141.371 83.888 141.259 83.5894 141.194C83.2907 141.129 82.992 141.096 82.6934 141.096ZM90.6179 145.366L90.9819 146.612H91.0519L91.3319 145.324L93.2079 140.2H94.3979L91.9199 146.57C91.6679 147.233 91.4439 147.788 91.2479 148.236C91.0613 148.675 90.8699 149.034 90.6739 149.314C90.4779 149.585 90.2679 149.781 90.0439 149.902C89.8199 150.014 89.5446 150.07 89.2179 150.07C88.9099 150.07 88.6626 150.047 88.4759 150C88.2986 149.944 88.1306 149.865 87.9719 149.762L88.3219 148.796C88.5086 148.899 88.6813 148.964 88.8399 148.992C88.9986 149.02 89.1433 149.034 89.2739 149.034C89.5353 149.034 89.7546 148.903 89.9319 148.642C90.1093 148.371 90.2633 147.975 90.3939 147.452L86.7679 140.2H88.1119L90.6179 145.366ZM96.6202 140.2V143.448C96.6202 144.727 97.1989 145.366 98.3562 145.366C98.7949 145.366 99.2055 145.31 99.5882 145.198C99.9709 145.077 100.284 144.918 100.526 144.722V140.2H101.688V150H100.526V145.772C100.274 145.912 99.9429 146.052 99.5322 146.192C99.1215 146.332 98.6502 146.402 98.1182 146.402C97.7262 146.402 97.3669 146.36 97.0402 146.276C96.7135 146.183 96.4335 146.033 96.2002 145.828C95.9669 145.613 95.7849 145.329 95.6542 144.974C95.5235 144.619 95.4582 144.181 95.4582 143.658V140.2H96.6202ZM104.075 140.2H109.409V141.236H105.237V144.442H109.059V145.478H105.237V148.964H109.479V150H104.075V140.2ZM111.077 149.398C111.077 149.174 111.151 148.992 111.301 148.852C111.45 148.712 111.641 148.642 111.875 148.642C112.164 148.642 112.397 148.745 112.575 148.95C112.761 149.155 112.855 149.454 112.855 149.846C112.855 150.182 112.808 150.476 112.715 150.728C112.621 150.98 112.5 151.195 112.351 151.372C112.201 151.559 112.038 151.708 111.861 151.82C111.683 151.941 111.506 152.03 111.329 152.086L110.979 151.54C111.315 151.409 111.562 151.204 111.721 150.924C111.889 150.653 111.973 150.378 111.973 150.098C111.889 150.126 111.809 150.14 111.735 150.14C111.548 150.14 111.389 150.079 111.259 149.958C111.137 149.827 111.077 149.641 111.077 149.398ZM117.976 140.2V143.448C117.976 144.727 118.554 145.366 119.712 145.366C120.15 145.366 120.561 145.31 120.944 145.198C121.326 145.077 121.639 144.918 121.882 144.722V140.2H123.044V150H121.882V145.772C121.63 145.912 121.298 146.052 120.888 146.192C120.477 146.332 120.006 146.402 119.474 146.402C119.082 146.402 118.722 146.36 118.396 146.276C118.069 146.183 117.789 146.033 117.556 145.828C117.322 145.613 117.14 145.329 117.01 144.974C116.879 144.619 116.814 144.181 116.814 143.658V140.2H117.976ZM125.43 140.2H130.764V141.236H126.592V144.442H130.414V145.478H126.592V148.964H130.834V150H125.43V140.2ZM140.468 143.42L140.608 141.95H140.538L140.006 143.294L137.458 147.718H137.108L134.406 143.28L133.902 141.95H133.832L134.028 143.406V150H132.936V140.2H133.804L136.87 145.212L137.332 146.304H137.36L137.794 145.184L140.72 140.2H141.63V150H140.468V143.42ZM152.993 141.236H148.905V150H147.743V140.2H152.993V141.236ZM153.936 140.298C154.291 140.214 154.673 140.158 155.084 140.13C155.495 140.102 155.901 140.088 156.302 140.088C156.731 140.088 157.165 140.13 157.604 140.214C158.052 140.298 158.458 140.452 158.822 140.676C159.186 140.9 159.48 141.208 159.704 141.6C159.937 141.992 160.054 142.491 160.054 143.098C160.054 143.695 159.947 144.199 159.732 144.61C159.517 145.021 159.233 145.357 158.878 145.618C158.523 145.87 158.117 146.052 157.66 146.164C157.203 146.276 156.731 146.332 156.246 146.332C156.199 146.332 156.12 146.332 156.008 146.332C155.905 146.332 155.793 146.332 155.672 146.332C155.56 146.323 155.448 146.313 155.336 146.304C155.224 146.295 155.145 146.285 155.098 146.276V150H153.936V140.298ZM156.33 141.096C156.087 141.096 155.854 141.101 155.63 141.11C155.406 141.119 155.229 141.143 155.098 141.18V145.24C155.145 145.259 155.219 145.273 155.322 145.282C155.425 145.282 155.532 145.287 155.644 145.296C155.756 145.296 155.863 145.296 155.966 145.296C156.069 145.296 156.143 145.296 156.19 145.296C156.507 145.296 156.82 145.268 157.128 145.212C157.445 145.147 157.73 145.035 157.982 144.876C158.234 144.717 158.435 144.493 158.584 144.204C158.743 143.915 158.822 143.546 158.822 143.098C158.822 142.715 158.747 142.398 158.598 142.146C158.458 141.885 158.267 141.679 158.024 141.53C157.791 141.371 157.525 141.259 157.226 141.194C156.927 141.129 156.629 141.096 156.33 141.096ZM165.53 147.284H161.918L160.938 150H159.79L163.5 140.046H164.032L167.756 150H166.538L165.53 147.284ZM162.296 146.276H165.18L164.088 143.294L163.738 141.81H163.724L163.374 143.322L162.296 146.276ZM174.923 145.506H170.219V150H169.057V140.2H170.219V144.47H174.923V140.2H176.085V150H174.923V145.506ZM186.247 151.806H185.449L185.239 150H178.365L178.155 151.806H177.343V148.964H178.337C178.412 148.861 178.524 148.623 178.673 148.25C178.832 147.867 178.986 147.326 179.135 146.626C179.294 145.917 179.434 145.035 179.555 143.98C179.677 142.916 179.737 141.656 179.737 140.2H184.973V148.964H186.247V151.806ZM183.811 148.964V141.236H180.829C180.801 142.263 180.745 143.187 180.661 144.008C180.587 144.829 180.493 145.557 180.381 146.192C180.269 146.817 180.143 147.359 180.003 147.816C179.863 148.273 179.719 148.656 179.569 148.964H183.811ZM193.381 145.464H192.723V150H191.561V140.2H192.723V144.764L193.353 144.568L196.643 140.2H197.987L194.711 144.414L194.123 144.876L194.837 145.436L198.421 150H196.951L193.381 145.464ZM204.768 147.284H201.156L200.176 150H199.028L202.738 140.046H203.27L206.994 150H205.776L204.768 147.284ZM201.534 146.276H204.418L203.326 143.294L202.976 141.81H202.962L202.612 143.322L201.534 146.276ZM214.161 145.506H209.457V150H208.295V140.2H209.457V144.47H214.161V140.2H215.323V150H214.161V145.506ZM217.702 140.2H218.864V144.008C218.91 143.999 218.99 143.989 219.102 143.98C219.214 143.961 219.335 143.947 219.466 143.938C219.596 143.929 219.732 143.919 219.872 143.91C220.012 143.901 220.138 143.896 220.25 143.896C220.698 143.896 221.132 143.943 221.552 144.036C221.981 144.12 222.359 144.274 222.686 144.498C223.022 144.722 223.292 145.025 223.498 145.408C223.703 145.781 223.806 146.257 223.806 146.836C223.806 147.396 223.708 147.881 223.512 148.292C223.316 148.703 223.045 149.043 222.7 149.314C222.354 149.585 221.948 149.785 221.482 149.916C221.024 150.047 220.525 150.112 219.984 150.112C219.853 150.112 219.694 150.107 219.508 150.098C219.321 150.098 219.12 150.089 218.906 150.07C218.7 150.061 218.49 150.042 218.276 150.014C218.07 149.986 217.879 149.949 217.702 149.902V140.2ZM220.138 149.104C220.474 149.104 220.786 149.062 221.076 148.978C221.374 148.885 221.636 148.749 221.86 148.572C222.084 148.385 222.256 148.157 222.378 147.886C222.508 147.606 222.574 147.284 222.574 146.92C222.574 146.528 222.504 146.201 222.364 145.94C222.224 145.679 222.037 145.473 221.804 145.324C221.58 145.165 221.318 145.058 221.02 145.002C220.721 144.937 220.413 144.904 220.096 144.904C220.012 144.904 219.909 144.909 219.788 144.918C219.666 144.927 219.545 144.937 219.424 144.946C219.302 144.955 219.19 144.969 219.088 144.988C218.985 145.007 218.91 145.021 218.864 145.03V149.02C218.994 149.048 219.181 149.071 219.424 149.09C219.666 149.099 219.904 149.104 220.138 149.104ZM224.843 145.1C224.843 143.467 225.188 142.216 225.879 141.348C226.569 140.471 227.554 140.032 228.833 140.032C229.523 140.032 230.121 140.153 230.625 140.396C231.129 140.639 231.544 140.984 231.871 141.432C232.207 141.871 232.454 142.403 232.613 143.028C232.771 143.644 232.851 144.335 232.851 145.1C232.851 146.733 232.501 147.989 231.801 148.866C231.11 149.734 230.121 150.168 228.833 150.168C228.151 150.168 227.559 150.047 227.055 149.804C226.56 149.561 226.145 149.221 225.809 148.782C225.482 148.334 225.239 147.802 225.081 147.186C224.922 146.561 224.843 145.865 224.843 145.1ZM226.075 145.1C226.075 145.641 226.126 146.155 226.229 146.64C226.341 147.125 226.509 147.555 226.733 147.928C226.957 148.292 227.241 148.586 227.587 148.81C227.941 149.025 228.357 149.132 228.833 149.132C229.701 149.132 230.382 148.805 230.877 148.152C231.371 147.489 231.619 146.472 231.619 145.1C231.619 144.568 231.563 144.059 231.451 143.574C231.348 143.079 231.18 142.65 230.947 142.286C230.723 141.913 230.433 141.619 230.079 141.404C229.733 141.18 229.318 141.068 228.833 141.068C227.974 141.068 227.297 141.399 226.803 142.062C226.317 142.715 226.075 143.728 226.075 145.1ZM240.685 145.506H235.981V150H234.819V140.2H235.981V144.47H240.685V140.2H241.847V150H240.685V145.506ZM244.813 140.2H245.975V145.058L245.737 147.522H245.051L244.813 145.058V140.2ZM244.575 149.356C244.575 149.104 244.645 148.908 244.785 148.768C244.934 148.619 245.13 148.544 245.373 148.544C245.625 148.544 245.826 148.619 245.975 148.768C246.124 148.908 246.199 149.104 246.199 149.356C246.199 149.599 246.124 149.795 245.975 149.944C245.826 150.093 245.625 150.168 245.373 150.168C245.13 150.168 244.934 150.093 244.785 149.944C244.645 149.795 244.575 149.599 244.575 149.356Z" fill="#333333"/>
</g>
<defs>
<filter id="filter0_d_73_248" x="0.699001" y="0.268005" width="261.099" height="159.818" filterUnits="userSpaceOnUse" color-interpolation-filters="sRGB">
<feFlood flood-opacity="0" result="BackgroundImageFix"/>
<feColorMatrix in="SourceAlpha" type="matrix" values="0 0 0 0 0 0 0 0 0 0 0 0 0 0 0 0 0 0 127 0" result="hardAlpha"/>
<feOffset dy="4"/>
<feGaussianBlur stdDeviation="2"/>
<feComposite in2="hardAlpha" operator="out"/>
<feColorMatrix type="matrix" values="0 0 0 0 0 0 0 0 0 0 0 0 0 0 0 0 0 0 0.25 0"/>
<feBlend mode="normal" in2="BackgroundImageFix" result="effect1_dropShadow_73_248"/>
<feBlend mode="normal" in="SourceGraphic" in2="effect1_dropShadow_73_248" result="shape"/>
</filter>
</defs>
</svg>
